<svg width="46" height="46" xmlns="http://www.w3.org/2000/svg"><path d="M39.757 0H5.243A5.243 5.243 0 000 5.243v34.514A5.243 5.243 0 005.243 45h34.514A5.243 5.243 0 0045 39.757V5.243A5.243 5.243 0 0039.757 0zm-9.54 33.533H27.01l-3.582-6.457a38.796 38.796 0 01-1.22-2.439 25.008 25.008 0 01-1.986 2.333l-6.156 6.563h-3.914L20.69 22.38l-6.246-10.913h3.25l2.846 4.997c.752 1.315 1.184 2.083 1.294 2.303.26.492.547 1.079.858 1.761.742-1.003 1.891-2.323 3.447-3.958l4.846-5.103h3.853l-10.67 11.394 6.05 10.672z" fill="#0AD78E" fill-rule="nonzero"/></svg>